<?xml version="1.0" standalone="no"?>
<!DOCTYPE svg PUBLIC "-//W3C//DTD SVG 20010904//EN"
 "http://www.w3.org/TR/2001/REC-SVG-20010904/DTD/svg10.dtd">
<svg version="1.0" xmlns="http://www.w3.org/2000/svg"
 width="128.000000pt" height="128.000000pt" viewBox="0 0 128.000000 128.000000"
 preserveAspectRatio="xMidYMid meet">

<g transform="translate(0.000000,128.000000) scale(0.100000,-0.100000)"
fill="#000000" stroke="none">
<path d="M500 1264 c-234 -50 -436 -254 -485 -489 -65 -312 112 -631 410 -736
138 -48 292 -48 430 0 248 87 425 337 425 601 0 406 -380 710 -780 624z m100
-330 c-26 -66 -21 -64 -146 -64 -129 0 -168 -11 -223 -63 -92 -87 -96 -234 -8
-325 55 -57 99 -74 200 -76 l90 -1 48 145 c27 80 70 205 95 278 l47 134 141
-4 c135 -3 143 -4 195 -33 233 -129 225 -463 -14 -576 -58 -28 -66 -29 -207
-29 l-147 0 13 38 13 37 124 6 c138 7 178 21 236 81 88 91 84 238 -8 325 -52
49 -96 63 -196 63 l-88 0 -94 -275 -94 -275 -131 0 c-123 0 -135 2 -191 29
-261 123 -239 500 34 597 23 8 88 13 178 14 l143 0 -10 -26z"/>
</g>
</svg>
